<svg xmlns="http://www.w3.org/2000/svg" version="1.1" width="128" height="128"
  viewbox="0 0 192 117"
  preserveAspectRatio="xMidYMid meet"
  style="shape-rendering:geometricPrecision; text-rendering:geometricPrecision; image-rendering:optimizeQuality; fill-rule:evenodd; clip-rule:evenodd"
  xmlns:xlink="http://www.w3.org/1999/xlink">
  <g>
    <path style="opacity:0.999" fill="#7abda7"
      d="M 110.5,14.5 C 144.168,14.3333 177.835,14.5 211.5,15C 212.333,15.8333 213.167,16.6667 214,17.5C 214.667,43.8333 214.667,70.1667 214,96.5C 213.167,97.3333 212.333,98.1667 211.5,99C 177.833,99.6667 144.167,99.6667 110.5,99C 109.667,98.1667 108.833,97.3333 108,96.5C 107.333,70.1667 107.333,43.8333 108,17.5C 109.045,16.6266 109.878,15.6266 110.5,14.5 Z" />
  </g>
  <g>
    <path style="opacity:0.914" fill="#7bbfa9"
      d="M 24.5,32.5 C 38.5,32.5 52.5,32.5 66.5,32.5C 66.5,38.8333 66.5,45.1667 66.5,51.5C 63.8333,51.5 61.1667,51.5 58.5,51.5C 58.3279,47.466 57.8279,43.466 57,39.5C 54.9592,38.5769 52.7925,38.2436 50.5,38.5C 50.5,50.1667 50.5,61.8333 50.5,73.5C 53.5176,73.7038 56.5176,74.0371 59.5,74.5C 59.5,76.1667 59.5,77.8333 59.5,79.5C 50.1667,79.5 40.8333,79.5 31.5,79.5C 31.5,77.8333 31.5,76.1667 31.5,74.5C 34.1667,74.1667 36.8333,73.8333 39.5,73.5C 39.5,61.8333 39.5,50.1667 39.5,38.5C 37.5,38.5 35.5,38.5 33.5,38.5C 32.9412,42.8526 32.2745,47.186 31.5,51.5C 28.8333,51.5 26.1667,51.5 23.5,51.5C 23.5572,45.1487 23.8905,38.8154 24.5,32.5 Z" />
  </g>
  <g>
    <path style="opacity:1" fill="#51776a"
      d="M 171.5,33.5 C 167.5,33.5 163.5,33.5 159.5,33.5C 159.5,34.8333 159.5,36.1667 159.5,37.5C 158.549,36.0813 158.216,34.4147 158.5,32.5C 163.032,32.1818 167.366,32.5151 171.5,33.5 Z" />
  </g>
  <g>
    <path style="opacity:1" fill="#557d70"
      d="M 203.5,33.5 C 198.5,33.5 193.5,33.5 188.5,33.5C 188.5,34.8333 188.5,36.1667 188.5,37.5C 187.549,36.0813 187.216,34.4147 187.5,32.5C 193.026,32.1786 198.36,32.5119 203.5,33.5 Z" />
  </g>
  <g>
    <path style="opacity:1" fill="#1b1b1c"
      d="M 151.5,33.5 C 151.5,36.8333 151.5,40.1667 151.5,43.5C 150.167,43.5 148.833,43.5 147.5,43.5C 146.962,41.8828 146.629,40.2161 146.5,38.5C 141.833,38.5 137.167,38.5 132.5,38.5C 132.5,43.5 132.5,48.5 132.5,53.5C 135.5,53.5 138.5,53.5 141.5,53.5C 141.5,51.5 141.5,49.5 141.5,47.5C 143.167,47.5 144.833,47.5 146.5,47.5C 146.5,52.8333 146.5,58.1667 146.5,63.5C 144.833,63.5 143.167,63.5 141.5,63.5C 141.5,61.8333 141.5,60.1667 141.5,58.5C 138.5,58.5 135.5,58.5 132.5,58.5C 132.5,63.8333 132.5,69.1667 132.5,74.5C 137.875,74.8282 143.208,74.4948 148.5,73.5C 148.814,70.5113 150.148,68.178 152.5,66.5C 154.455,67.2802 155.455,68.7802 155.5,71C 154.969,73.8166 154.636,76.65 154.5,79.5C 142.833,79.5 131.167,79.5 119.5,79.5C 119.5,77.8333 119.5,76.1667 119.5,74.5C 120.833,74.5 122.167,74.5 123.5,74.5C 124.495,62.3446 124.829,50.0113 124.5,37.5C 123.5,37.5 122.5,37.5 121.5,37.5C 119.824,36.8166 119.157,35.4832 119.5,33.5C 130.167,33.5 140.833,33.5 151.5,33.5 Z" />
  </g>
  <g>
    <path style="opacity:1" fill="#1a191a"
      d="M 171.5,33.5 C 176.776,42.1072 182.442,50.4405 188.5,58.5C 189.777,60.95 191.277,63.2833 193,65.5C 193.667,56.5 193.667,47.5 193,38.5C 191.644,37.6198 190.144,37.2865 188.5,37.5C 188.5,36.1667 188.5,34.8333 188.5,33.5C 193.5,33.5 198.5,33.5 203.5,33.5C 203.5,34.8333 203.5,36.1667 203.5,37.5C 201.856,37.2865 200.356,37.6198 199,38.5C 198.5,52.1626 198.333,65.8293 198.5,79.5C 196.396,79.7989 194.396,79.4656 192.5,78.5C 185.141,67.4822 177.807,56.4822 170.5,45.5C 170.44,44.9569 170.107,44.6236 169.5,44.5C 168.177,54.6589 168.177,64.6589 169.5,74.5C 171.167,74.5 172.833,74.5 174.5,74.5C 174.5,76.1667 174.5,77.8333 174.5,79.5C 169.167,79.5 163.833,79.5 158.5,79.5C 158.5,77.8333 158.5,76.1667 158.5,74.5C 159.833,74.5 161.167,74.5 162.5,74.5C 163.495,62.3446 163.829,50.0113 163.5,37.5C 162.5,37.5 161.5,37.5 160.5,37.5C 160.167,37.5 159.833,37.5 159.5,37.5C 159.5,36.1667 159.5,34.8333 159.5,33.5C 163.5,33.5 167.5,33.5 171.5,33.5 Z" />
  </g>
  <g>
    <path style="opacity:1" fill="#649887"
      d="M 121.5,37.5 C 122.5,37.5 123.5,37.5 124.5,37.5C 124.829,50.0113 124.495,62.3446 123.5,74.5C 124.116,61.9168 123.449,49.5835 121.5,37.5 Z" />
  </g>
  <g>
    <path style="opacity:1" fill="#679d8a"
      d="M 160.5,37.5 C 161.5,37.5 162.5,37.5 163.5,37.5C 163.829,50.0113 163.495,62.3446 162.5,74.5C 163.116,61.9168 162.449,49.5835 160.5,37.5 Z" />
  </g>
  <g>
    <path style="opacity:1" fill="#6aa28f"
      d="M 188.5,37.5 C 190.144,37.2865 191.644,37.6198 193,38.5C 193.667,47.5 193.667,56.5 193,65.5C 191.277,63.2833 189.777,60.95 188.5,58.5C 189.75,58.5774 190.583,59.244 191,60.5C 191.5,53.1742 191.666,45.8409 191.5,38.5C 190.209,38.7373 189.209,38.404 188.5,37.5 Z" />
  </g>
  <g>
    <path style="opacity:1" fill="#425e55"
      d="M 151.5,33.5 C 152.482,36.9619 152.815,40.6286 152.5,44.5C 150.585,44.7845 148.919,44.4511 147.5,43.5C 148.833,43.5 150.167,43.5 151.5,43.5C 151.5,40.1667 151.5,36.8333 151.5,33.5 Z" />
  </g>
  <g>
    <path style="opacity:0.931" fill="#7cbfa9"
      d="M 82.5,42.5 C 98.6358,43.7089 104.802,52.3756 101,68.5C 96.3733,78.5626 88.54,82.396 77.5,80C 70.0269,76.3968 66.3602,70.3968 66.5,62C 66.8025,51.168 72.1358,44.668 82.5,42.5 Z M 81.5,49.5 C 86.118,48.9491 88.9513,50.9491 90,55.5C 91.0375,61.3942 90.3708,67.0609 88,72.5C 83.8046,75.5466 80.8046,74.5466 79,69.5C 76.5239,62.3408 77.3572,55.6741 81.5,49.5 Z" />
  </g>
  <g>
    <path style="opacity:1" fill="#405a52"
      d="M 170.5,45.5 C 169.506,54.9856 169.173,64.6522 169.5,74.5C 168.177,64.6589 168.177,54.6589 169.5,44.5C 170.107,44.6236 170.44,44.9569 170.5,45.5 Z" />
  </g>
</svg>