<?xml version="1.0" encoding="UTF-8"?>
<svg xmlns="http://www.w3.org/2000/svg" xmlns:xlink="http://www.w3.org/1999/xlink" width="128px" height="128px" viewBox="0 0 178 90" version="1.1">
<defs>
<filter id="alpha" filterUnits="objectBoundingBox" x="0%" y="0%" width="100%" height="100%">
  <feColorMatrix type="matrix" in="SourceGraphic" values="0 0 0 0 1 0 0 0 0 1 0 0 0 0 1 0 0 0 1 0"/>
</filter>
<mask id="mask0">
  <g filter="url(#alpha)">
<rect x="0" y="0" width="192" height="117" style="fill:rgb(0%,0%,0%);fill-opacity:0.913725;stroke:none;"/>
  </g>
</mask>
<clipPath id="clip1">
  <rect x="0" y="0" width="192" height="117"/>
</clipPath>
<g id="surface5" clip-path="url(#clip1)">
<path style=" stroke:none;fill-rule:evenodd;fill:rgb(48.235294%,74.901961%,66.27451%);fill-opacity:1;" d="M 18.375 24.375 C 28.875 24.375 39.375 24.375 49.875 24.375 C 49.875 29.125 49.875 33.875 49.875 38.625 C 47.875 38.625 45.875 38.625 43.875 38.625 C 43.746094 35.597656 43.371094 32.597656 42.75 29.625 C 41.21875 28.933594 39.59375 28.683594 37.875 28.875 C 37.875 37.625 37.875 46.375 37.875 55.125 C 40.136719 55.277344 42.386719 55.527344 44.625 55.875 C 44.625 57.125 44.625 58.375 44.625 59.625 C 37.625 59.625 30.625 59.625 23.625 59.625 C 23.625 58.375 23.625 57.125 23.625 55.875 C 25.625 55.625 27.625 55.375 29.625 55.125 C 29.625 46.375 29.625 37.625 29.625 28.875 C 28.125 28.875 26.625 28.875 25.125 28.875 C 24.707031 32.140625 24.207031 35.390625 23.625 38.625 C 21.625 38.625 19.625 38.625 17.625 38.625 C 17.667969 33.863281 17.917969 29.113281 18.375 24.375 Z M 18.375 24.375 "/>
</g>
<mask id="mask1">
  <g filter="url(#alpha)">
<rect x="0" y="0" width="192" height="117" style="fill:rgb(0%,0%,0%);fill-opacity:0.929412;stroke:none;"/>
  </g>
</mask>
<clipPath id="clip2">
  <rect x="0" y="0" width="192" height="117"/>
</clipPath>
<g id="surface8" clip-path="url(#clip2)">
<path style=" stroke:none;fill-rule:evenodd;fill:rgb(48.627451%,74.901961%,66.27451%);fill-opacity:1;" d="M 61.875 31.875 C 73.976562 32.78125 78.601562 39.28125 75.75 51.375 C 72.28125 58.921875 66.40625 61.796875 58.125 60 C 52.519531 57.296875 49.769531 52.796875 49.875 46.5 C 50.101562 38.375 54.101562 33.5 61.875 31.875 Z M 61.125 37.125 C 64.589844 36.710938 66.714844 38.210938 67.5 41.625 C 68.277344 46.046875 67.777344 50.296875 66 54.375 C 62.851562 56.660156 60.601562 55.910156 59.25 52.125 C 57.394531 46.753906 58.019531 41.753906 61.125 37.125 Z M 61.125 37.125 "/>
</g>
</defs>
<g id="surface1">
<path style=" stroke:none;fill-rule:evenodd;fill:rgb(47.843137%,74.117647%,65.490196%);fill-opacity:1;" d="M 82.875 10.875 C 108.125 10.75 133.375 10.875 158.625 11.25 C 159.25 11.875 159.875 12.5 160.5 13.125 C 161 32.875 161 52.625 160.5 72.375 C 159.875 73 159.25 73.625 158.625 74.25 C 133.375 74.75 108.125 74.75 82.875 74.25 C 82.25 73.625 81.625 73 81 72.375 C 80.5 52.625 80.5 32.875 81 13.125 C 81.785156 12.46875 82.410156 11.71875 82.875 10.875 Z M 82.875 10.875 "/>
<use xlink:href="#surface5" mask="url(#mask0)"/>
<path style=" stroke:none;fill-rule:evenodd;fill:rgb(31.764706%,46.666667%,41.568627%);fill-opacity:1;" d="M 128.625 25.125 C 125.625 25.125 122.625 25.125 119.625 25.125 C 119.625 26.125 119.625 27.125 119.625 28.125 C 118.910156 27.0625 118.660156 25.8125 118.875 24.375 C 122.273438 24.136719 125.523438 24.386719 128.625 25.125 Z M 128.625 25.125 "/>
<path style=" stroke:none;fill-rule:evenodd;fill:rgb(33.333333%,49.019608%,43.921569%);fill-opacity:1;" d="M 152.625 25.125 C 148.875 25.125 145.125 25.125 141.375 25.125 C 141.375 26.125 141.375 27.125 141.375 28.125 C 140.660156 27.0625 140.410156 25.8125 140.625 24.375 C 144.769531 24.132812 148.769531 24.382812 152.625 25.125 Z M 152.625 25.125 "/>
<path style=" stroke:none;fill-rule:evenodd;fill:rgb(10.588235%,10.588235%,10.980392%);fill-opacity:1;" d="M 113.625 25.125 C 113.625 27.625 113.625 30.125 113.625 32.625 C 112.625 32.625 111.625 32.625 110.625 32.625 C 110.222656 31.410156 109.972656 30.160156 109.875 28.875 C 106.375 28.875 102.875 28.875 99.375 28.875 C 99.375 32.625 99.375 36.375 99.375 40.125 C 101.625 40.125 103.875 40.125 106.125 40.125 C 106.125 38.625 106.125 37.125 106.125 35.625 C 107.375 35.625 108.625 35.625 109.875 35.625 C 109.875 39.625 109.875 43.625 109.875 47.625 C 108.625 47.625 107.375 47.625 106.125 47.625 C 106.125 46.375 106.125 45.125 106.125 43.875 C 103.875 43.875 101.625 43.875 99.375 43.875 C 99.375 47.875 99.375 51.875 99.375 55.875 C 103.40625 56.121094 107.40625 55.871094 111.375 55.125 C 111.609375 52.882812 112.609375 51.132812 114.375 49.875 C 115.839844 50.460938 116.589844 51.585938 116.625 53.25 C 116.226562 55.363281 115.976562 57.488281 115.875 59.625 C 107.125 59.625 98.375 59.625 89.625 59.625 C 89.625 58.375 89.625 57.125 89.625 55.875 C 90.625 55.875 91.625 55.875 92.625 55.875 C 93.371094 46.757812 93.621094 37.507812 93.375 28.125 C 92.625 28.125 91.875 28.125 91.125 28.125 C 89.867188 27.613281 89.367188 26.613281 89.625 25.125 C 97.625 25.125 105.625 25.125 113.625 25.125 Z M 113.625 25.125 "/>
<path style=" stroke:none;fill-rule:evenodd;fill:rgb(10.196078%,9.803922%,10.196078%);fill-opacity:1;" d="M 128.625 25.125 C 132.582031 31.582031 136.832031 37.832031 141.375 43.875 C 142.332031 45.710938 143.457031 47.460938 144.75 49.125 C 145.25 42.375 145.25 35.625 144.75 28.875 C 143.734375 28.214844 142.609375 27.964844 141.375 28.125 C 141.375 27.125 141.375 26.125 141.375 25.125 C 145.125 25.125 148.875 25.125 152.625 25.125 C 152.625 26.125 152.625 27.125 152.625 28.125 C 151.390625 27.964844 150.265625 28.214844 149.25 28.875 C 148.875 39.121094 148.75 49.371094 148.875 59.625 C 147.296875 59.847656 145.796875 59.597656 144.375 58.875 C 138.855469 50.613281 133.355469 42.363281 127.875 34.125 C 127.828125 33.71875 127.582031 33.46875 127.125 33.375 C 126.132812 40.996094 126.132812 48.496094 127.125 55.875 C 128.375 55.875 129.625 55.875 130.875 55.875 C 130.875 57.125 130.875 58.375 130.875 59.625 C 126.875 59.625 122.875 59.625 118.875 59.625 C 118.875 58.375 118.875 57.125 118.875 55.875 C 119.875 55.875 120.875 55.875 121.875 55.875 C 122.621094 46.757812 122.871094 37.507812 122.625 28.125 C 121.875 28.125 121.125 28.125 120.375 28.125 C 120.125 28.125 119.875 28.125 119.625 28.125 C 119.625 27.125 119.625 26.125 119.625 25.125 C 122.625 25.125 125.625 25.125 128.625 25.125 Z M 128.625 25.125 "/>
<path style=" stroke:none;fill-rule:evenodd;fill:rgb(39.215686%,59.607843%,52.941176%);fill-opacity:1;" d="M 91.125 28.125 C 91.875 28.125 92.625 28.125 93.375 28.125 C 93.621094 37.507812 93.371094 46.757812 92.625 55.875 C 93.085938 46.4375 92.585938 37.1875 91.125 28.125 Z M 91.125 28.125 "/>
<path style=" stroke:none;fill-rule:evenodd;fill:rgb(40.392157%,61.568627%,54.117647%);fill-opacity:1;" d="M 120.375 28.125 C 121.125 28.125 121.875 28.125 122.625 28.125 C 122.871094 37.507812 122.621094 46.757812 121.875 55.875 C 122.335938 46.4375 121.835938 37.1875 120.375 28.125 Z M 120.375 28.125 "/>
<path style=" stroke:none;fill-rule:evenodd;fill:rgb(41.568627%,63.529412%,56.078431%);fill-opacity:1;" d="M 141.375 28.125 C 142.609375 27.964844 143.734375 28.214844 144.75 28.875 C 145.25 35.625 145.25 42.375 144.75 49.125 C 143.457031 47.460938 142.332031 45.710938 141.375 43.875 C 142.3125 43.933594 142.9375 44.433594 143.25 45.375 C 143.625 39.878906 143.75 34.378906 143.625 28.875 C 142.65625 29.054688 141.90625 28.804688 141.375 28.125 Z M 141.375 28.125 "/>
<path style=" stroke:none;fill-rule:evenodd;fill:rgb(25.882353%,36.862745%,33.333333%);fill-opacity:1;" d="M 113.625 25.125 C 114.363281 27.722656 114.609375 30.472656 114.375 33.375 C 112.9375 33.589844 111.6875 33.339844 110.625 32.625 C 111.625 32.625 112.625 32.625 113.625 32.625 C 113.625 30.125 113.625 27.625 113.625 25.125 Z M 113.625 25.125 "/>
<use xlink:href="#surface8" mask="url(#mask1)"/>
<path style=" stroke:none;fill-rule:evenodd;fill:rgb(25.098039%,35.294118%,32.156863%);fill-opacity:1;" d="M 127.875 34.125 C 127.128906 41.238281 126.878906 48.488281 127.125 55.875 C 126.132812 48.496094 126.132812 40.996094 127.125 33.375 C 127.582031 33.46875 127.828125 33.71875 127.875 34.125 Z M 127.875 34.125 "/>
</g>
</svg>
